<svg version="1" xmlns="http://www.w3.org/2000/svg" width="484" height="481.333" viewBox="0 0 363.000000 361.000000"><path d="M171.5 16.7c-33.6 1.8-64.5 13-91.4 33C69.5 57.5 52.8 74.8 44.8 86c-17.2 24.1-28 54.6-29.6 83.5-.7 11.7 0 33 1 34.1.3.3 5.5 0 11.4-.7 6.8-.7 17.3-.9 27.8-.6l16.8.6-.6-2.7c-.3-1.5-1.3-5.6-2.1-9.2-2.4-10.2-3-33.1-1.2-41.5 2.3-10.7 5.4-18 11.3-26.7L85 115l-1.5-5.7c-2.8-10.8-1.2-31.1 3.2-39.7 1.5-2.8 1.6-2.8 7.9-2.2 9 .9 21.4 5.6 33.2 12.6 9.2 5.5 10.2 5.8 13.3 5 19.3-5.6 55.4-6.4 75.9-1.6 5.4 1.2 5.6 1.2 9.8-1.7 6.2-4.1 23.9-12.4 29.2-13.6 2.5-.6 6.8-1.1 9.6-1.1 5.8 0 6.4.7 8.9 11.4 1.6 6.6 1.9 24 .6 29.6-.7 3.3-.5 3.9 3.6 8.5 5.8 6.6 12.9 21.1 14.8 30.3 2.3 11.5 1.8 36.2-1.1 51.7l-.5 3.1 25-.1h25l.6-3.3c1-5.4.7-30.6-.5-39.4-9.7-71-65.6-128.4-135.9-139.8-11.7-1.9-25.4-2.8-34.6-2.3zM299.2 204c-4.5.4-8.4.9-8.7 1.1-.2.2-.6 1.6-1 3l-.7 2.6 19.4.6c11 .3 22 1.2 25.5 2l6.3 1.4.6-3.6c.3-2 .8-4.3 1-5.2.4-1.3-.7-1.7-5.7-2.3-7.6-.7-25.5-.6-36.7.4zM30.5 205.1c-6 .5-11.6 1.1-12.3 1.4-1.1.4-1.3 1.7-.7 5.3.4 2.6.8 4.8.9 4.9.1.1 5.1-.7 11.1-1.8 6.1-1 17.5-2.1 25.5-2.4 8-.4 15.9-.8 17.7-1.1 3-.4 3.1-.6 2-3.4-1.1-3-1.2-3-9.2-3-4.4 0-11.6-.2-16-.4-4.4-.3-12.9 0-19 .5zM286.7 215.1c-.4 1.3-2.9 5.4-5.6 9.1-5.9 7.9-15.8 15.2-26.8 19.8-7.2 3-23.3 7.1-33.6 8.5l-4.8.6 4.1 4.5c8.5 9.2 9.9 16.7 10 51.5 0 28.1.1 28.3 7.6 25.5 2.7-1 9.3-4 14.7-6.7 41.3-20.4 71.6-57 84.8-102.1 1.3-4.3 2-8.1 1.6-8.4-1.8-1.8-15.9-3.5-32.8-4.1l-18.6-.6-.6 2.4zM46.9 215c-4.2.4-12.1 1.5-17.7 2.5-11.7 2.1-11.1.3-6 16 8.2 25 25.1 50.9 45 68.9 16.3 14.7 38.1 27.7 57.6 34.3 11.4 3.8 11.2 4.2 11.2-18.8v-17.6l-4.2.8c-6.8 1.3-17.9 1-24.1-.6-13.2-3.4-19.6-9.1-26.3-23-5.2-10.9-9.6-16.5-17-21.8-8.9-6.3-8.3-10.2 1.4-10.1 9.3.1 18.2 5.9 25.2 16.4 4 6 9.3 11.1 14.5 13.8 4.2 2.2 6.3 2.6 13 2.6 5.4-.1 9.6-.7 12.9-2 5.2-2 5.2-2 8.9-10.4 1.3-3 4-7.1 6-9.1l3.6-3.7-7.8-1.1c-29.3-4.3-51.8-16.3-62.7-33.5l-2.9-4.6-11.5.1c-6.3.1-14.9.5-19.1.9z"/><path d="M68.5 249c-.8 1.2 2 2.4 3.5 1.5.5-.3 1-1 1-1.6 0-1.2-3.7-1.2-4.5.1zM77.3 254.2c.2.7 1.2 1.3 2.2 1.3 1 0 2-.6 2.3-1.3.2-.7-.6-1.2-2.3-1.2-1.7 0-2.5.5-2.2 1.2zM82.3 260.2c.2.7 1.2 1.3 2.2 1.3 1 0 2-.6 2.3-1.3.2-.7-.6-1.2-2.3-1.2-1.7 0-2.5.5-2.2 1.2zM87.2 267.2c.5 1.5 3.7 1.8 4.1.3.1-.6-.9-1.2-2.2-1.3-1.6-.3-2.2.1-1.9 1zM92.9 273.1c-1.1.6-1.1 1.1-.2 2 1.2 1.2 4.3.6 4.3-1 0-1.4-2.5-2-4.1-1zM181 308.3c0 17.1-.4 32.6-.9 34.2l-.8 3 4.2-.3 4.3-.4-.9-3.1c-.5-1.8-.9-12-.9-22.7s-.3-24.6-.7-30.8c-.5-10-.8-11.2-2.5-11.2s-1.8 1.5-1.8 31.3zM99.7 278.6c-1.1 1.1.3 2.4 2.4 2.4 1.2 0 1.9-.5 1.7-1.3-.5-1.4-3.1-2.1-4.1-1.1zM130.2 280.7c-1.8.7-.4 2.3 1.9 2.3 1.2 0 1.9-.5 1.7-1.2-.5-1.4-1.8-1.8-3.6-1.1zM158.5 283c-1.8 3.2-2 6-2.5 30.6-.4 20.9-.8 27.5-1.9 28.7-1.2 1.5-1 1.7 1.7 1.7 4.9 0 5.3-3.3 5-36l-.3-28.5-2 3.5zM206.3 310.7c.1 17.1.5 31.4.8 31.8 1.2 1.1 5.9-.6 5.1-1.9-.4-.6-.9-12.8-1.2-27.1-.5-24.4-.7-26.3-2.8-30l-2.2-4 .3 31.2zM109.7 282.6c-1 1.1.3 2.4 2.4 2.4 1 0 1.9-.7 1.9-1.5 0-1.5-3.1-2.1-4.3-.9zM119.7 282.6c-1 1.1.3 2.4 2.4 2.4 1 0 1.9-.7 1.9-1.5 0-1.5-3.1-2.1-4.3-.9z"/></svg>